#!OML:ASF I:\Actors\actors\Patient Classification 1\Patient 1\Session 1\Subject1.ASF
:FULLY-SPECIFIED
:DEGREES
573
root 0.167266 17.636 8.9348 18.3212 16.226 -9.96312
lowerback 12.2741 -0.911932 5.46933
upperback -10.5826 0.306751 2.16711
thorax -19.3114 -0.360782 -0.618972
lowerneck -6.28633 -17.9485 -13.9289
upperneck 14.6229 -25.5481 14.0165
head 9.2285 -11.9911 3.54554
rclavicle 3.39425e-014 -1.86858e-014
rhumerus -4.48092 -42.7073 -14.477
rradius 60.3153
rwrist 30.2757
rhand -26.6742 -56.9827
rfingers 7.12502
rthumb -0.105385 -86.9624
lclavicle 3.39425e-014 -1.86858e-014
lhumerus -10.9734 40.1582 11.2499
lradius 69.1502
lwrist 1.27988
lhand -43.0685 -31.6198
lfingers 7.12502
lthumb -15.9243 -2.25446
rfemur -9.8561 29.1894 22.6632
rtibia -0.77401
rfoot -24.2398 -40.3282
rtoes 19.4844
lfemur -18.6343 -54.8354 11.0084
ltibia -4.35698
lfoot -14.1076 55.9504
ltoes 2.14339
574
root 0.166707 17.635 8.93498 18.3495 16.2328 -9.98215
lowerback 12.298 -0.913074 5.49787
upperback -10.58 0.31193 2.16046
thorax -19.3246 -0.363247 -0.643934
lowerneck -6.29007 -17.9532 -13.8083
upperneck 14.616 -25.5647 14.006
head 9.21137 -11.9943 3.52579
rclavicle -4.47266e-016 1.90833e-014
rhumerus -5.04957 -42.7364 -14.9735
rradius 60.7734
rwrist 30.6061
rhand -27.0247 -57.166
rfingers 7.12502
rthumb -0.443925 -87.1453
lclavicle -4.47266e-016 1.90833e-014
lhumerus -11.3427 40.0919 11.6462
lradius 69.0453
lwrist 0.823833
lhand -43.0467 -32.6208
lfingers 7.12502
lthumb -15.9034 -3.25381
rfemur -9.91605 29.2719 22.6528
rtibia -0.743168
rfoot -24.3626 -40.3727
rtoes 19.7002
lfemur -18.685 -54.8504 11.093
ltibia -4.37927
lfoot -14.0988 55.976
ltoes 2.06501
575
root 0.166095 17.6337 8.93592 18.3792 16.2143 -10.0023
lowerback 12.3305 -0.923789 5.5237
upperback -10.5895 0.305578 2.15978
thorax -19.3607 -0.370369 -0.656463
lowerneck -6.22488 -17.9196 -13.7585
upperneck 14.5541 -25.5401 14.095
head 9.18215 -11.9802 3.55998
rclavicle -7.72775e-015 1.07344e-014
rhumerus -5.61851 -42.5889 -15.4394
rradius 61.112
rwrist 30.8523
rhand -27.2059 -57.2562
rfingers 7.12502
rthumb -0.618919 -87.235
lclavicle -7.72775e-015 1.07344e-014
lhumerus -11.7663 40.0905 12.0392
lradius 68.9757
lwrist 0.197903
lhand -43.2323 -33.1516
lfingers 7.12502
lthumb -16.0821 -3.79897
rfemur -9.96094 29.4042 22.6413
rtibia -0.742276
rfoot -24.5248 -40.4493
rtoes 19.9955
lfemur -18.6924 -54.8487 11.1388
ltibia -4.40988
lfoot -14.2347 55.9969
ltoes 2.40035
576
root 0.166178 17.6322 8.93773 18.4317 16.1674 -9.99494
lowerback 12.3579 -0.940143 5.53689
upperback -10.6014 0.287116 2.15233
thorax -19.3968 -0.381984 -0.666372
lowerneck -6.29408 -17.9072 -13.8447
upperneck 14.6292 -25.5583 14.2686
head 9.26111 -11.9725 3.61045
rclavicle -1.92573e-014 -2.3059e-014
rhumerus -6.01172 -42.5773 -16.0554
rradius 61.41
rwrist 31.2154
rhand -27.1419 -57.1064
rfingers 7.12502
rthumb -0.557134 -87.0854
lclavicle -1.92573e-014 -2.3059e-014
lhumerus -12.262 40.0772 12.3836
lradius 68.9805
lwrist -0.309232
lhand -43.6025 -33.5214
lfingers 7.12502
lthumb -16.4385 -4.19792
rfemur -10.0071 29.5336 22.5922
rtibia -0.756142
rfoot -24.6712 -40.4866
rtoes 20.1077
lfemur -18.6844 -54.8283 11.1338
ltibia -4.44626
lfoot -14.4495 56.0116
ltoes 2.78884
577
root 0.166464 17.6321 8.93929 18.4793 16.1093 -9.96392
lowerback 12.4029 -0.94417 5.53601
upperback -10.6084 0.280069 2.12249
thorax -19.4371 -0.389041 -0.697997
lowerneck -6.33111 -17.8988 -13.9629
upperneck 14.6834 -25.5906 14.4944
head 9.34199 -11.9714 3.68132
rclavicle -5.73991e-015 -1.59028e-015
rhumerus -6.48472 -42.6358 -16.6517
rradius 61.8101
rwrist 31.4704
rhand -27.2563 -56.9103
rfingers 7.12502
rthumb -0.667656 -86.889
lclavicle -5.73991e-015 -1.59028e-015
lhumerus -12.7314 39.8805 12.6175
lradius 69.0022
lwrist -0.440174
lhand -43.734 -34.1135
lfingers 7.12502
lthumb -16.5651 -4.80057
rfemur -10.0414 29.6091 22.5257
rtibia -0.765263
rfoot -24.6834 -40.4994
rtoes 19.8396
lfemur -18.6678 -54.8119 11.0873
ltibia -4.46587
lfoot -14.4563 56.03
ltoes 2.72954
578
root 0.165745 17.6321 8.94068 18.5252 16.0367 -9.92609
lowerback 12.4217 -0.926717 5.47994
upperback -10.5917 0.289299 2.10387
thorax -19.4257 -0.379065 -0.691602
lowerneck -6.3425 -17.9013 -13.9357
upperneck 14.6527 -25.6028 14.5467
head 9.33966 -11.9723 3.6915
rclavicle -2.30342e-014 -2.46493e-014
rhumerus -7.02199 -42.6909 -17.1382
rradius 62.2661
rwrist 31.5111
rhand -27.6564 -56.7133
rfingers 7.12502
rthumb -1.0541 -86.6905
lclavicle -2.30342e-014 -2.46493e-014
lhumerus -13.1563 39.7388 12.8931
lradius 69.0399
lwrist -0.439652
lhand -43.7195 -34.3648
lfingers 7.12502
lthumb -16.5511 -5.05065
rfemur -10.0933 29.7144 22.442
rtibia -0.766555
rfoot -24.6333 -40.5817
rtoes 19.7867
lfemur -18.6535 -54.7836 11.0343
ltibia -4.47376
lfoot -14.3321 56.0425
ltoes 2.60841
579
root 0.163945 17.631 8.94192 18.5853 15.9555 -9.91367
lowerback 12.4282 -0.908704 5.42647
upperback -10.5822 0.301763 2.09972
thorax -19.4154 -0.366535 -0.670499
lowerneck -6.41863 -17.9675 -13.8382
upperneck 14.6843 -25.6769 14.425
head 9.34274 -12.0057 3.62071
rclavicle 1.15295e-014 1.35174e-014
rhumerus -7.39777 -42.8439 -17.7246
rradius 62.6302
rwrist 31.6774
rhand -27.8941 -56.5774
rfingers 7.12502
rthumb -1.2836 -86.5533
lclavicle 1.15295e-014 1.35174e-014
lhumerus -13.5338 39.7754 13.2845
lradius 69.0781
lwrist -0.561291
lhand -43.8269 -34.6767
lfingers 7.12502
lthumb -16.6546 -5.37118
rfemur -10.1894 29.8093 22.3715
rtibia -0.747023
rfoot -24.6649 -40.6251
rtoes 20.133
lfemur -18.682 -54.717 11.0557
ltibia -4.49482
lfoot -14.3546 56.0604
ltoes 2.75522
580
root 0.162579 17.6299 8.94243 18.6618 15.879 -9.93234
lowerback 12.4427 -0.904793 5.41005
upperback -10.6036 0.306959 2.10636
thorax -19.4533 -0.362152 -0.654046
lowerneck -6.41396 -18.0302 -13.8822
upperneck 14.7465 -25.7755 14.4382
head 9.38598 -12.0501 3.6086
rclavicle 1.22004e-014 -2.78299e-014
rhumerus -7.77167 -42.871 -18.3405
rradius 62.9415
rwrist 31.8968
rhand -27.8482 -56.8715
rfingers 7.12502
rthumb -1.23928 -86.8476
lclavicle 1.22004e-014 -2.78299e-014
lhumerus -13.8968 39.9432 13.7367
lradius 69.0611
lwrist -0.837829
lhand -44.0314 -35.5372
lfingers 7.12502
lthumb -16.8515 -6.24838
rfemur -10.3228 29.7933 22.3306
rtibia -0.705719
rfoot -24.6899 -40.5514
rtoes 20.2769
lfemur -18.7587 -54.6241 11.1556
ltibia -4.52672
lfoot -14.5081 56.0879
ltoes 3.03702
581
root 0.162093 17.6296 8.9429 18.7434 15.7996 -9.93445
lowerback 12.4323 -0.907696 5.35347
upperback -10.6206 0.294612 2.13033
thorax -19.4688 -0.357843 -0.590196
lowerneck -6.39838 -18.0533 -13.9978
upperneck 14.8284 -25.8285 14.5142
head 9.44719 -12.0718 3.63324
rclavicle 4.34841e-015 2.62396e-014
rhumerus -8.15752 -42.7993 -18.9409
rradius 63.2995
rwrist 32.0453
rhand -27.8676 -57.1972
rfingers 7.12502
rthumb -1.25803 -87.1732
lclavicle 4.34841e-015 2.62396e-014
lhumerus -14.2718 40.2285 14.1793
lradius 68.9848
lwrist -1.37745
lhand -44.3282 -36.1542
lfingers 7.12502
lthumb -17.1371 -6.88993
rfemur -10.4538 29.7506 22.2719
rtibia -0.670928
rfoot -24.636 -40.4861
rtoes 20.1381
lfemur -18.8237 -54.542 11.2146
ltibia -4.54538
lfoot -14.625 56.1155
ltoes 3.2199
582
root 0.168466 17.6265 8.93797 18.624 15.8584 -10.1751
lowerback 12.5834 -0.962545 5.70603
upperback -10.5859 0.314569 2.18374
thorax -19.5341 -0.392034 -0.728678
lowerneck -6.45413 -18.0787 -13.9981
upperneck 14.9275 -25.8673 14.4802
head 9.49186 -12.0851 3.60748
rclavicle 2.17918e-014 2.14687e-014
rhumerus -8.41315 -42.9259 -19.623
rradius 63.5829
rwrist 32.2253
rhand -28.101 -57.1588
rfingers 7.12502
rthumb -1.4835 -87.1334
lclavicle 2.17918e-014 2.14687e-014
lhumerus -14.6743 40.3975 14.5152
lradius 68.9694
lwrist -1.96671
lhand -44.482 -36.5974
lfingers 7.12502
lthumb -17.2851 -7.34611
rfemur -10.3498 29.4117 22.633
rtibia -0.699056
rfoot -24.3518 -40.2475
rtoes 19.8462
lfemur -18.752 -54.5885 11.4005
ltibia -4.53005
lfoot -14.3926 56.1972
ltoes 2.81889
